<?xml version="1.0" encoding="UTF-8"?>
<svg id="Layer_1" data-name="Layer 1" xmlns="http://www.w3.org/2000/svg" viewBox="0 0 521.93 515.63">
  <defs>
    <style>
      .cls-1 {
        fill: none;
      }

      .cls-1, .cls-2 {
        stroke: #231f20;
        stroke-miterlimit: 10;
        stroke-width: 2px;
      }

      .cls-2, .cls-3 {
        fill: #231f20;
      }

      .cls-3 {
        stroke-width: 0px;
      }
    </style>
  </defs>
  <path class="cls-3" d="m386.39,164.18c-20.33,0-39.05,10.71-52.28,27.6l-31.95-40.79c21.62-27.6,51.31-44.5,84.23-44.5,65.83,0,119.4,68.39,119.4,152.44s-53.57,152.44-119.4,152.44c-32.92,0-62.61-17.3-84.23-44.91l31.95-40.79c13.23,17.3,31.95,28.02,52.28,28.02,40.98,0,74.22-42.44,74.22-94.76s-33.24-94.76-74.22-94.76Z"/>
  <circle class="cls-1" cx="260.96" cy="257.81" r="256.81"/>
  <path class="cls-2" d="m317,328.24c-5.02-5.02-9.77-10.04-16.64-17.43-15.32,14.26-32.48,20.33-52.02,20.33-34.6,0-54.67-23.24-54.67-49.91,0-24.3,14.52-40.93,34.86-52.02v-.79c-9.24-11.62-14.79-24.56-14.79-37.24,0-21.65,15.58-43.84,45.16-43.84,22.18,0,39.35,14.79,39.35,37.76,0,18.75-10.83,33.54-39.08,47.54v.79c15.05,17.43,31.95,36.97,43.31,49.65,8.19-12.41,13.73-29.58,17.17-52.02h21.13c-4.75,27.99-12.41,50.18-25.62,65.76,9.51,10.04,18.75,20.07,29.31,31.43h-27.46Zm-27.99-30.63c-10.56-11.62-30.37-33.27-50.18-55.99-9.51,6.07-22.98,17.43-22.98,36.18,0,20.33,15.05,35.92,36.44,35.92,15.32,0,28.26-6.87,36.71-16.11Zm-54.14-108.54c0,12.68,5.81,22.45,13.47,31.95,17.96-10.3,29.58-19.81,29.58-34.86,0-10.83-6.07-22.98-20.6-22.98s-22.45,12.15-22.45,25.88Z"/>
  <path class="cls-3" d="m135.54,352c20.33,0,39.05-10.71,52.28-27.6l31.95,40.79c-21.62,27.6-51.31,44.5-84.23,44.5-65.83,0-119.4-68.39-119.4-152.44s53.57-152.44,119.4-152.44c32.92,0,62.6,17.3,84.23,44.91l-31.95,40.79c-13.23-17.3-31.95-28.02-52.28-28.02-40.98,0-74.22,42.44-74.22,94.76s33.24,94.76,74.22,94.76Z"/>
</svg>